<svg width="1600" height="900" viewBox="0 0 1600 900" fill="none" xmlns="http://www.w3.org/2000/svg">
  <defs>
    <linearGradient id="bg2" x1="220" y1="80" x2="1440" y2="840" gradientUnits="userSpaceOnUse">
      <stop stop-color="#11213E"/>
      <stop offset="1" stop-color="#264566"/>
    </linearGradient>
    <radialGradient id="field" cx="0" cy="0" r="1" gradientUnits="userSpaceOnUse" gradientTransform="translate(760 430) rotate(90) scale(380 560)">
      <stop stop-color="#57D9A5" stop-opacity="0.25"/>
      <stop offset="1" stop-color="#57D9A5" stop-opacity="0"/>
    </radialGradient>
    <filter id="softGlow" x="-50%" y="-50%" width="200%" height="200%">
      <feGaussianBlur stdDeviation="10" result="blur"/>
      <feMerge>
        <feMergeNode in="blur"/>
        <feMergeNode in="SourceGraphic"/>
      </feMerge>
    </filter>
  </defs>

  <rect width="1600" height="900" fill="url(#bg2)"/>
  <rect width="1600" height="900" fill="url(#field)"/>

  <g opacity="0.2" stroke="#8DEFD0" stroke-width="1.5">
    <path d="M110 230C260 270 350 380 470 460C620 558 760 590 920 620C1110 656 1280 640 1490 720"/>
    <path d="M80 550C230 500 330 420 470 350C650 258 840 242 1020 280C1170 312 1330 372 1510 420"/>
    <path d="M120 760C260 700 420 640 600 638C800 636 950 700 1130 744C1260 776 1370 780 1490 766"/>
  </g>

  <g opacity="0.35" fill="#B8FFE8">
    <circle cx="190" cy="218" r="6"/>
    <circle cx="430" cy="352" r="7"/>
    <circle cx="644" cy="556" r="8"/>
    <circle cx="930" cy="618" r="8"/>
    <circle cx="1210" cy="646" r="7"/>
    <circle cx="430" cy="462" r="6"/>
    <circle cx="710" cy="304" r="7"/>
    <circle cx="1110" cy="322" r="8"/>
  </g>

  <g filter="url(#softGlow)">
    <circle cx="540" cy="430" r="120" fill="#C8FFF0" fill-opacity="0.35"/>
    <circle cx="728" cy="510" r="94" fill="#AAF5DF" fill-opacity="0.3"/>
    <circle cx="915" cy="420" r="82" fill="#A9F8E3" fill-opacity="0.28"/>
    <circle cx="1046" cy="554" r="102" fill="#B8FFE8" fill-opacity="0.26"/>
  </g>

  <g opacity="0.96">
    <circle cx="538" cy="430" r="88" fill="#ECFFF8"/>
    <circle cx="538" cy="430" r="56" fill="#9BECD3"/>
    <circle cx="538" cy="430" r="23" fill="#4FC09A"/>
    <circle cx="728" cy="510" r="70" fill="#E8FFF7"/>
    <circle cx="728" cy="510" r="45" fill="#A0EFD7"/>
    <circle cx="728" cy="510" r="18" fill="#52C59F"/>
    <circle cx="915" cy="420" r="62" fill="#EAFFF9"/>
    <circle cx="915" cy="420" r="40" fill="#9EEFD8"/>
    <circle cx="915" cy="420" r="15" fill="#4EC39D"/>
    <circle cx="1046" cy="554" r="75" fill="#ECFFF9"/>
    <circle cx="1046" cy="554" r="47" fill="#AAEED8"/>
    <circle cx="1046" cy="554" r="19" fill="#54C7A1"/>
  </g>

  <g stroke="#8FE9CC" stroke-width="4" stroke-linecap="round" opacity="0.8">
    <path d="M614 464L664 486"/>
    <path d="M788 490L848 452"/>
    <path d="M960 470L1000 514"/>
    <path d="M590 364L668 336"/>
    <path d="M850 366L904 330"/>
  </g>

  <g fill="#96F0D1" opacity="0.92">
    <circle cx="664" cy="486" r="8"/>
    <circle cx="848" cy="452" r="8"/>
    <circle cx="1000" cy="514" r="8"/>
    <circle cx="668" cy="336" r="7"/>
    <circle cx="904" cy="330" r="7"/>
  </g>
</svg>
